**ABCDEFGHIJKLMNOPQRSTUVWXYZabcdefghijklmnopqrstuvwxyz**************************
**PARASOLID !"#$%&'()*+,-./:;<=>?@[\]^_`{|}~0123456789**************************
**PART1;
MC=unknown;
MC_MODEL=unknown;
MC_ID=unknown;
OS=unknown;
OS_RELEASE=unknown;
FRU=sdl_parasolid_customer_support;
APPL=parasolid_acceptance_tests;
SITE=unknown;
USER=unknown;
FORMAT=text;
GUISE=transmit;
KEY=/lore/hakimm2/220412_mesh_model_for_example_curve_cavity_collapse/cubic_slab_mesh_attributes_nat.x_t;
FILE=/lore/hakimm2/220412_mesh_model_for_example_curve_cavity_collapse/cubic_slab_mesh_attributes_nat.x_t;
DATE=unknown;
**PART2;
SCH=SCH_3200152_32001;
USFLD_SIZE=1;
**PART3;
**END_OF_HEADER*****************************************************************
T51 : TRANSMIT FILE created by modeller version 320015223 SCH_3200152_32001_1300
6227 1 12 34 CCCCCCI4 mesh1006 0 I8 polyline1008 0 CCCCCCCDI5 owner1040 0 CCCCCC
I13 boundary_mesh1006 0 I17 boundary_polyline1008 0 CCCA16 index_map_offset0 0 1
 dA9 index_map82 0 A17 node_id_index_map82 0 A20 schema_embedding_map82 0 A5 chi
ld12 0 A14 lowest_node_id0 0 1 dA16 mesh_offset_data206 0 Z1 136 2 3 0 0 0 0 0 0
 1e3 1e-8 0 0 0 1 0 1 1 4 5 6 7 0 0 8 9 10 0 0 0 0 0 0 0 0 81 255 1 2 136 11 1 1
2 0 0 0 13 0 70 11 CI9 list_type0 0 1 uI10 notransmit0 0 1 lCCCDCCDI12 finger_in
dex0 0 1 dI12 finger_block1012 0 CZ3 0 4 T1 0 0 5 20 1 14 14 0 13 255 4 91 0 1 0
 15 0 0 16 0 0 67 255 5 90 0 15 17 0 0 +18 0 -1 0 ?0 30 255 6 86 0 19 20 0 0 +-.
5 .5 0 0 -1 0 0 29 255 7 67 0 21 22 0 -.5 -.5 -.1 0 19 8 CCCCCCCA5 owner12 0 Z8
 1 0 1 16 0 23 V0 0 16 255 9 73 24 ?25 0 26 20 0 0 1 0 18 255 10 15 0 27 0 28 29
 ?1 0 17 255 27 0 30 31 32 10 33 34 0 35 +0 18 28 10 0 32 10 36 37 ?1 0 29 29 17
 0 10 37 38 -.5 .5 -.1 0 29 37 12 0 28 39 29 .5 .5 -.1 0 29 38 70 0 40 29 41 -.5
 -.5 0 0 18 40 60 0 42 43 0 38 ?1 0 29 41 69 0 43 38 22 .5 -.5 0 0 18 43 58 0 44
 45 40 41 ?1 0 29 22 68 0 45 41 7 .5 -.5 -.1 0 18 45 56 0 46 21 43 22 ?1 0 17 46
 0 47 48 25 45 44 49 0 50 +0 18 21 54 0 51 52 45 7 ?1 0 17 51 0 53 35 50 21 54 5
5 0 56 +0 18 52 2 0 31 36 21 57 ?1 0 17 31 0 30 58 27 52 59 60 0 61 +0 18 36 5 0
 62 28 52 39 ?1 0 29 57 4 0 52 0 39 -.5 .5 0 0 29 39 7 0 36 57 37 .5 .5 0 0 17 6
2 0 47 25 48 36 32 63 0 58 -0 15 255 47 79 0 46 64 0 0 17 25 0 47 46 62 43 65 9
 0 66 +0 17 48 0 47 62 46 28 50 26 0 33 -0 17 32 0 30 27 58 28 62 63 0 48 +0 16
 63 11 67 ?32 34 68 69 0 0 1 0 17 58 0 30 32 31 36 70 68 0 65 +0 15 30 23 0 58 7
1 0 0 17 70 0 72 73 65 52 58 68 0 0 -0 16 68 6 74 ?58 63 75 18 0 0 1 0 17 65 0 7
2 70 66 36 25 9 0 0 -0 15 72 81 0 66 15 0 0 17 66 0 72 65 73 43 76 77 0 0 +0 17
 73 0 72 66 70 40 61 19 0 76 +0 17 76 0 78 79 44 40 66 77 0 0 -0 16 77 52 80 ?66
 49 0 81 0 0 1 0 81 1 80 120 82 77 0 0 74 24 83 0 16 49 50 84 ?46 55 77 85 0 0 1
 0 134 255 81 66 0 77 86 85 0 +87 88 0 30 86 22 0 60 89 81 0 +-.5 .5 -.1 -555111
512312578e-30 0 1 0 30 85 65 0 49 81 90 0 +.5 -.5 0 1110223024625156e-30 0 -1 0
 136 255 87 3 7 3 5 4 FFF1 91 92 93 0 135 255 88 2 0 0 45 255 21 91 -.5 -.5 0 -.
4166666666666665 -.5 -.0666666666666667 -.25 -.5 -.142857142857143 0 -.5 -573899
901960081e-32 .25 -.5 .142857142857143 .4166666666666665 -.5 .0666666666666667 .
5 -.5 0 0 127 255 5 92 4 1 1 1 4 0 128 255 5 93 0 .25 .5 .75 1 0 134 90 64 0 55
 85 94 0 +95 96 0 16 55 48 97 ?51 75 49 90 0 0 1 0 30 94 63 0 75 90 98 0 +-.5 -.
5 -.1 -555111512312578e-30 0 1 0 136 95 3 7 3 5 4 FFF1 99 100 101 0 135 96 2 0 0
 45 21 99 .5 -.5 -.1 .4166666666666665 -.5 -.0333333333333334 .25 -.5 .042857142
8571429 0 -.5 -.1 -.25 -.5 -.242857142857143 -.4166666666666665 -.5 -.1666666666
666665 -.5 -.5 -.1 0 127 5 100 4 1 1 1 4 0 128 5 101 0 .25 .5 .75 1 0 16 75 46 1
02 ?42 68 55 94 0 0 1 0 30 98 83 0 103 94 104 0 +-.5 .5 -.1 0 -1 0 0 16 103 71 1
05 ?56 26 19 98 0 0 1 0 30 104 84 0 26 98 20 0 +.5 .5 -.1 0 -1 0 0 16 26 72 106
 ?50 9 103 104 0 0 1 0 30 20 85 0 9 104 6 0 +.5 .5 0 0 -1 0 0 81 1 106 118 82 26
 0 0 84 74 107 0 17 50 0 53 51 33 45 48 26 0 54 +0 15 53 77 0 51 108 0 0 17 33 0
 53 50 35 28 27 34 0 0 -0 17 54 0 78 44 79 45 51 55 0 0 -0 15 78 45 0 76 109 0 0
 17 44 0 78 76 54 43 46 49 0 25 -0 17 79 0 78 54 76 21 42 75 0 0 -0 17 42 0 110
 61 56 40 79 75 0 73 +0 15 110 75 0 42 111 0 0 17 61 0 110 59 42 52 73 19 0 70 -
0 17 56 0 110 42 59 21 35 103 0 79 +0 17 59 0 110 56 61 10 31 60 0 0 -0 17 35 0
 53 33 51 10 56 103 0 59 -0 16 60 20 112 ?31 19 34 86 0 0 1 0 81 1 112 122 82 60
 0 0 24 113 114 0 16 19 74 115 ?73 103 60 6 0 0 1 0 16 34 16 116 ?27 60 63 89 0
 0 1 0 81 1 116 112 82 34 0 0 115 102 117 0 134 89 19 0 34 69 86 118 +119 120 0
 30 69 14 0 63 18 89 0 +.5 .5 0 1110223024625156e-30 0 -1 0 141 255 118 121 118
 118 89 0 136 119 3 7 3 5 4 FFF1 122 123 124 0 135 120 2 0 0 45 21 122 .5 .5 -.1
 .4166666666666665 .5 -.0333333333333334 .25 .5 .0428571428571429 0 .5 -.1 -.25
 .5 -.242857142857143 -.4166666666666665 .5 -.1666666666666665 -.5 .5 -.1 0 127
 5 123 4 1 1 1 4 0 128 5 124 0 .25 .5 .75 1 0 67 121 88 0 108 125 17 0 +89 0 -1
 0 .369891199427053 0 14 255 108 78 126 ?111 64 53 4 121 -0 0 111 64 23 0 50 255
 125 87 0 111 127 121 0 +-.5 .5 -.1 1 0 555111512312578e-30 555111512312578e-30
 0 -1 0 50 17 89 0 64 121 5 0 +.5 .5 0 -1 0 -1110223024625156e-30 -1110223024625
156e-30 0 1 0 14 64 80 128 ?108 15 47 4 17 -0 0 108 15 23 0 81 1 128 131 129 64
 130 0 131 126 132 0 14 15 82 131 ?64 0 72 4 5 -0 0 64 0 23 0 13 23 3 0 0 0 0 0
 0 8 15 0 81 1 131 130 129 15 133 0 0 128 134 0 80 255 1 129 0 135 8001 0 0 0 0
 3 5 0 0 0 FFFFTFTFFFFFFF2 0 81 1 133 126 82 15 0 131 136 137 138 0 83 255 3 134
 .5960784 .6666667 .6862745 0 80 1 82 139 140 9000 1 1 1 1 1 1 1 1 0 FFFFTFTFFFF
FFF3 0 81 1 136 125 82 111 0 141 142 133 143 0 81 1 137 127 82 71 0 144 133 130
 145 0 84 255 32 138 c8a975a5e0aade761f36dc9f220007350 14 71 24 144 ?109 111 30
 4 146 +0 0 109 111 23 0 81 1 144 134 129 71 137 0 141 147 148 0 81 1 130 128 82
 64 0 128 137 0 149 0 84 32 145 91d894ddf91e4120b13b09f6acbc84620 84 32 149 ac5a
bd345d8eb10f6913054c134256610 81 1 141 133 129 111 136 0 126 144 150 0 81 1 147
 135 129 109 142 0 144 0 151 0 83 3 148 .5960784 .6666667 .6862745 0 14 109 42 1
47 ?0 71 78 4 127 -0 0 0 71 23 0 81 1 142 124 82 109 0 147 113 136 152 0 83 3 15
1 .5960784 .6666667 .6862745 0 81 1 113 123 82 108 0 126 112 142 153 0 84 32 152
 6abe1365555f2564b5374dbb4364fc7a0 81 1 126 132 129 108 113 0 128 141 154 0 84 3
2 153 2c636f8185ac55d309424834a7ea859b0 83 3 154 .5960784 .6666667 .6862745 0 50
 127 62 0 109 146 125 0 +-693889390390723e-32 -.5 -693889390390723e-32 0 1 0 0 0
 1 0 50 146 25 0 71 0 127 0 +-693889390390723e-32 .5 -693889390390723e-32 0 1 0
 0 0 1 0 14 111 76 141 ?71 108 110 4 125 -0 0 71 108 23 0 83 3 150 .5960784 .666
6667 .6862745 0 84 32 143 bee041cc1dbedb0c4918e1e4742f47f70 79 255 15 140 UGS/Ob
jectState0 79 15 135 SDL/TYSA_COLOUR0 83 3 132 .5960784 .6666667 .6862745 0 134
 18 9 0 68 0 69 155 +156 157 0 141 155 5 155 155 18 0 136 156 3 7 3 5 4 FFF1 158
 159 160 0 135 157 2 0 0 45 21 158 -.5 .5 0 -.4166666666666665 .5 -.066666666666
6667 -.25 .5 -.142857142857143 0 .5 -573899901960081e-32 .25 .5 .142857142857143
 .4166666666666665 .5 .0666666666666667 .5 .5 0 0 127 5 159 4 1 1 1 4 0 128 5 16
0 0 .25 .5 .75 1 0 81 1 115 111 82 19 0 0 0 116 161 0 81 1 102 113 82 75 0 0 116
 97 162 0 84 32 117 d261e4fbfeea82292be062963ced167d0 81 1 97 114 82 55 0 0 102
 105 163 0 84 32 162 959b1d4a12ce831a858782951212e8c30 81 1 105 115 82 103 0 0 9
7 67 164 0 84 32 163 cb4dcd5654bdb02aefd75307442d458f0 81 1 67 116 82 63 0 0 105
 84 165 0 84 32 164 861ec94e7758982beff4e13f4d9e34cd0 81 1 84 117 82 49 0 0 67 1
06 166 0 84 32 165 4fc47d5154b8d5f1433cfc19b743dc3b0 84 32 166 7d6f5017564acdf90
5421bbd8502f33e0 84 32 161 c479d46f19623b8ce5b5a7a3586e8fa20 81 1 24 121 82 9 0
 0 80 112 167 0 84 32 114 1aa0bbf95ff9ff482122da23a236bae40 84 32 167 92e1d330fd
912b65f974e73562f09b330 81 1 74 119 82 68 0 0 106 80 168 0 84 32 107 3e65923aa71
cb200fe3f26ce14f2749a0 84 32 168 2f57dc89b135c14e47e4452f453851740 84 32 83 f8d5
3da8de67827320d387d5f12d66520 19 16 92 0 1 0 8 4 S0 0 74 4 CI16 index_map_offset
0 0 1 dCCZ20 14 5 0 0 169 130 12 147 2 0 0 0 0 0 0 0 0 0 0 0 0 0 0 0 0 81 2 169
 110 170 1 0 12 0 0 171 172 0 81 1 12 129 173 1 169 2 0 0 174 0 80 1 173 82 175
 9000 0 0 0 0 3 5 0 0 0 FFTFFFFFFFFFFF1 0 82 255 1 174 8 0 79 7 175 body_id0 80
 2 170 176 177 8004 0 0 0 0 3 5 0 0 0 FFTFFFFFFFFFFF2 3 0 83 1 171 7830.64 0 84
 8 172 Kg/Cu M 0 79 16 177 SDL/TYSA_DENSITY0 80 1 11 173 178 9000 0 0 0 0 3 5 0
 0 0 FFTFFFFFFFFFFF1 0 82 1 13 129 0 79 24 178 UG2/BODY_COLOR_ATTRIBUTE0 1 0 
